<svg width="17" height="20" viewBox="0 0 17 20" fill="none" xmlns="http://www.w3.org/2000/svg">
<path d="M3.51732 16.7542C3.59593 16.8137 3.6855 16.8572 3.78091 16.882C3.87633 16.9069 3.97571 16.9127 4.07337 16.8992C4.17103 16.8856 4.26506 16.8529 4.35007 16.8029C4.43508 16.753 4.50941 16.6867 4.5688 16.608C5.02508 16.0042 5.61568 15.5149 6.29383 15.1789C6.97197 14.8429 7.71903 14.6694 8.47585 14.6722C9.23266 14.6749 9.97845 14.8539 10.6541 15.1948C11.3298 15.5357 11.9169 16.0292 12.3687 16.6363C12.4276 16.7154 12.5013 16.782 12.5859 16.8325C12.6705 16.883 12.7642 16.9163 12.8616 16.9306C12.9591 16.9449 13.0584 16.9398 13.1539 16.9157C13.2494 16.8916 13.3392 16.849 13.4182 16.7902C13.4972 16.7313 13.5638 16.6576 13.6143 16.573C13.6648 16.4884 13.6982 16.3947 13.7124 16.2973C13.7267 16.1998 13.7217 16.1005 13.6976 16.005C13.6735 15.9095 13.6308 15.8197 13.572 15.7407C12.9111 14.8479 12.0281 14.1437 11.0107 13.698C11.571 13.1901 11.9646 12.5247 12.14 11.7892C12.3154 11.0536 12.2643 10.2822 11.9935 9.57614C11.7226 8.87012 11.2446 8.26249 10.6222 7.83298C9.9998 7.40348 9.2621 7.17218 8.50591 7.16943C7.74971 7.16669 7.01035 7.39263 6.38486 7.8176C5.75937 8.24257 5.27697 8.84672 5.00097 9.55075C4.72498 10.2548 4.66828 11.0258 4.83833 11.7627C5.00837 12.4995 5.39721 13.1677 5.95381 13.6796C4.93113 14.1171 4.04097 14.8149 3.37207 15.7037C3.25205 15.8623 3.19992 16.062 3.22716 16.259C3.2544 16.456 3.35877 16.6341 3.51732 16.7542ZM8.49764 8.67224C8.94264 8.67385 9.37717 8.80739 9.74628 9.05597C10.1154 9.30454 10.4025 9.65699 10.5713 10.0687C10.7401 10.4805 10.783 10.933 10.6946 11.3692C10.6062 11.8053 10.3905 12.2055 10.0747 12.519C9.75886 12.8325 9.35717 13.0453 8.9204 13.1306C8.48363 13.2158 8.0314 13.1696 7.62089 12.9978C7.21037 12.826 6.86002 12.5364 6.61413 12.1655C6.36825 11.7945 6.23787 11.3591 6.23948 10.9141C6.24165 10.3173 6.48078 9.74589 6.90426 9.32547C7.32775 8.90504 7.9009 8.67007 8.49764 8.67224ZM15.2775 0.446802L1.77764 0.397781C1.37982 0.396336 0.997715 0.552985 0.71539 0.833266C0.433066 1.11355 0.273647 1.4945 0.272202 1.89232L0.212287 18.3922C0.210843 18.79 0.367491 19.1721 0.647773 19.4545C0.928054 19.7368 1.30901 19.8962 1.70683 19.8977L15.2067 19.9467C15.6046 19.9481 15.9867 19.7915 16.269 19.5112C16.5513 19.2309 16.7107 18.85 16.7122 18.4521L16.7721 1.95224C16.7735 1.55442 16.6169 1.17231 16.3366 0.88999C16.0563 0.607666 15.6754 0.448247 15.2775 0.446802ZM15.2122 18.4467L1.71228 18.3977L1.77219 1.89777L15.2721 1.94679L15.2122 18.4467ZM4.764 4.15865C4.76472 3.95974 4.84443 3.76926 4.9856 3.62912C5.12676 3.48898 5.31781 3.41066 5.51672 3.41138L11.5167 3.43317C11.7156 3.43389 11.9061 3.5136 12.0462 3.65476C12.1864 3.79592 12.2647 3.98697 12.264 4.18588C12.2632 4.38479 12.1835 4.57527 12.0424 4.71541C11.9012 4.85555 11.7101 4.93388 11.5112 4.93316L5.51127 4.91137C5.31236 4.91065 5.12189 4.83094 4.98175 4.68977C4.8416 4.54861 4.76328 4.35756 4.764 4.15865Z" fill="black"/>
</svg>
