<svg width="17" height="19" viewBox="0 0 17 19" fill="none" xmlns="http://www.w3.org/2000/svg">
<path d="M15.2748 0.196764L1.77493 0.147743C1.57602 0.147021 1.38497 0.225345 1.2438 0.365486C1.10264 0.505626 1.02293 0.696104 1.02221 0.895015L0.962295 17.3949C0.961572 17.5938 1.0399 17.7849 1.18004 17.926C1.32018 18.0672 1.51066 18.1469 1.70957 18.1476L15.2095 18.1966C15.4084 18.1974 15.5994 18.119 15.7406 17.9789C15.8818 17.8388 15.9615 17.6483 15.9622 17.4494L16.0221 0.949483C16.0228 0.750572 15.9445 0.559521 15.8044 0.418359C15.6642 0.277196 15.4737 0.197486 15.2748 0.196764ZM8.47859 12.9222C7.88525 12.92 7.30587 12.742 6.81372 12.4105C6.32157 12.0791 5.93876 11.6092 5.71369 11.0602C5.48862 10.5112 5.4314 9.90776 5.54927 9.32624C5.66714 8.74472 5.9548 8.21121 6.37588 7.79318C6.79695 7.37515 7.33254 7.09137 7.9149 6.97773C8.49726 6.86409 9.10024 6.92569 9.64759 7.15474C10.1949 7.38379 10.6621 7.77001 10.9899 8.26455C11.3178 8.75909 11.4916 9.33974 11.4895 9.93308C11.4866 10.7287 11.1677 11.4906 10.6031 12.0512C10.0384 12.6118 9.27423 12.9251 8.47859 12.9222Z" fill="black" fill-opacity="0.04"/>
</svg>
