<svg width="21" height="17" viewBox="0 0 21 17" fill="none" xmlns="http://www.w3.org/2000/svg">
<path d="M19.0227 2.95255L11.023 2.92351L8.42949 0.964075C8.17018 0.769121 7.85501 0.662791 7.53059 0.660809L2.53093 0.642654C2.13311 0.641209 1.75101 0.797858 1.46869 1.07814C1.18636 1.35842 1.02694 1.73937 1.0255 2.1372L0.9792 14.8871C0.977756 15.2849 1.1344 15.667 1.41469 15.9494C1.69497 16.2317 2.07592 16.3911 2.47374 16.3925L18.9736 16.4525C19.3715 16.4539 19.7536 16.2973 20.0359 16.017C20.3182 15.7367 20.4776 15.3557 20.4791 14.9579L20.5172 4.45799C20.5186 4.06017 20.362 3.67807 20.0817 3.39574C19.8014 3.11342 19.4205 2.954 19.0227 2.95255ZM2.52549 2.14264L7.52514 2.1608L9.52031 3.66805L7.51425 5.16078L2.51459 5.14262L2.52549 2.14264ZM18.9791 14.9525L2.47919 14.8926L2.50915 6.64261L7.5088 6.66077C7.83323 6.66114 8.14916 6.5571 8.40989 6.36404L11.0176 4.4235L19.0172 4.45254L18.9791 14.9525Z" fill="black"/>
</svg>
