<svg width="24" height="21" viewBox="0 0 24 21" fill="none" xmlns="http://www.w3.org/2000/svg">
<path d="M17.8333 19.1667C17.8333 17.1647 15.2217 15.5417 12 15.5417C8.77834 15.5417 6.16667 17.1647 6.16667 19.1667M22.5 15.5422C22.5 14.0557 21.0602 12.7782 19 12.2188M1.5 15.5422C1.5 14.0557 2.93978 12.7782 5 12.2188M19 7.36871C19.716 6.70495 20.1667 5.74035 20.1667 4.66675C20.1667 2.66472 18.5997 1.04175 16.6667 1.04175C15.7703 1.04175 14.9525 1.39078 14.3333 1.96479M5 7.36871C4.28396 6.70495 3.83333 5.74035 3.83333 4.66675C3.83333 2.66472 5.40034 1.04175 7.33333 1.04175C8.22975 1.04175 9.04745 1.39078 9.66667 1.96479M12 11.9167C10.067 11.9167 8.5 10.2938 8.5 8.29175C8.5 6.28972 10.067 4.66675 12 4.66675C13.933 4.66675 15.5 6.28972 15.5 8.29175C15.5 10.2938 13.933 11.9167 12 11.9167Z" stroke="#18191C" stroke-width="2" stroke-linecap="round" stroke-linejoin="round"/>
</svg>
