<svg width="21" height="20" viewBox="0 0 21 20" fill="none" xmlns="http://www.w3.org/2000/svg">
<path d="M7.65548 9.07931C7.76976 9.01389 7.8648 8.91953 7.93104 8.80572C7.99728 8.69191 8.03239 8.56267 8.03284 8.43099L8.05735 1.68103C8.05712 1.56146 8.02829 1.44367 7.97329 1.3375C7.91828 1.23133 7.83869 1.13985 7.74114 1.07069C7.64359 1.00153 7.53093 0.956691 7.41253 0.939922C7.29414 0.923152 7.17345 0.934935 7.06054 0.974286C4.86865 1.74109 3.02218 3.26461 1.85304 5.27097C0.683903 7.27733 0.268785 9.63492 0.68231 11.9199C0.703746 12.0381 0.753243 12.1494 0.826639 12.2445C0.900034 12.3395 0.995182 12.4155 1.10408 12.4662C1.20221 12.5125 1.30937 12.5366 1.41789 12.5367C1.54952 12.5372 1.67898 12.5031 1.79325 12.4377L7.65548 9.07931ZM6.55324 2.81183L6.53442 7.99242L2.0363 10.5664C2.02556 10.4248 2.02608 10.2823 2.02658 10.1436C2.03343 8.6233 2.45966 7.1344 3.25833 5.8408C4.05701 4.5472 5.19715 3.49908 6.55324 2.81183ZM20.0265 10.2089C20.0194 12.3493 19.3083 14.428 18.0027 16.1241C16.6971 17.8202 14.8696 19.0396 12.8022 19.5941C10.7349 20.1486 8.54248 20.0073 6.56334 19.1922C4.58421 18.377 2.92832 16.9332 1.85114 15.0836C1.80093 14.9982 1.76814 14.9036 1.75468 14.8054C1.74121 14.7072 1.74734 14.6074 1.77271 14.5116C1.79808 14.4158 1.84218 14.3259 1.90247 14.2473C1.96275 14.1686 2.03803 14.1027 2.12395 14.0533L9.52795 9.77987L9.55921 1.17086C9.55994 0.971949 9.63965 0.781472 9.78081 0.641331C9.92197 0.50119 10.113 0.422866 10.3119 0.423588C12.0134 0.430635 13.6834 0.882585 15.1561 1.73457C16.6289 2.58655 17.8532 3.80893 18.7075 5.28036C18.7177 5.29539 18.7271 5.31043 18.7364 5.3264C18.7457 5.34237 18.755 5.36115 18.7634 5.37806C19.5993 6.85033 20.0348 8.51594 20.0265 10.2089Z" fill="black"/>
</svg>
