<svg width="28" height="28" viewBox="0 0 28 28" fill="none" xmlns="http://www.w3.org/2000/svg">
<path d="M18.25 20.9584V22.2501C18.25 24.3902 16.3472 26.1251 14 26.1251C11.6528 26.1251 9.75002 24.3902 9.75002 22.2501V20.9584M18.25 20.9584H9.75002M18.25 20.9584H23.3366C23.8785 20.9584 24.1507 20.9584 24.3702 20.8909C24.7893 20.762 25.1173 20.462 25.2586 20.0798C25.333 19.8789 25.333 19.6299 25.333 19.1319C25.333 18.914 25.3327 18.805 25.314 18.7012C25.2786 18.5048 25.1951 18.3187 25.0678 18.1571C25.0006 18.0717 24.9151 17.9937 24.7466 17.8401L24.1948 17.337C24.0167 17.1746 23.9167 16.9544 23.9167 16.7249V11.9167C23.9167 6.92317 19.4769 2.87507 14 2.87508C8.52321 2.87509 4.08335 6.92318 4.08335 11.9167V16.7249C4.08335 16.9545 3.98312 17.1746 3.80507 17.337L3.25328 17.8401C3.08428 17.9942 2.99966 18.0716 2.93231 18.1571C2.80503 18.3187 2.72073 18.5048 2.68539 18.7012C2.66669 18.805 2.66669 18.914 2.66669 19.1319C2.66669 19.6299 2.66669 19.8789 2.74099 20.0798C2.88237 20.4619 3.21182 20.762 3.63096 20.8909C3.8504 20.9584 4.12162 20.9584 4.66356 20.9584H9.75002M22.5263 1.60107C24.4802 2.94352 26.0195 4.72445 26.9942 6.77041M5.47447 1.60107C3.52058 2.94352 1.9813 4.72445 1.00653 6.77041" stroke="#18191C" stroke-width="2" stroke-linecap="round" stroke-linejoin="round"/>
</svg>
