<svg width="25" height="25" viewBox="0 0 25 25" fill="none" xmlns="http://www.w3.org/2000/svg">
<path d="M25 14.1932C25 20.5995 19.53 24.9028 12.7377 25C15.1647 24.9389 17.0963 23.9054 17.0963 20.9329C17.0963 17.8659 12.5 13.8904 12.5 13.8904C12.5 13.8904 7.90372 17.8659 7.90372 20.9329C7.90372 23.9054 9.8353 24.9389 12.2623 25C5.46999 24.9028 0 20.5995 0 14.1932C0 11.9124 1.5466 9.47883 3.55517 7.28414C2.93434 9.61724 5.11977 11.8536 7.17059 11.8985C7.57899 8.03144 7.57899 5.55617 12.5 0C16.1523 6.2507 24.7021 6.88409 25 14.1932Z" fill="#F90000"/>
</svg>
